# xmcd
#
# Track frame offsets:
#	150
#	17520
#	28812
#	41935
#	55312
#	71680
#	83045
#	96327
#	111982
#	126702
#	140170
#	151225
#	166767
#	185412
#	197355
#	213740
#	226627
#	238832
#
# Disc length: 3387 seconds
#
# Revision: 1
# Processed by: cddbd v1.5.2PL0 Copyright (c) Steve Scherf et al.
# Submitted via: audiograbber 1.83.01
#
DISCID=030d3912
DTITLE=Oak Ridge Boys - Oak Ridge Boys Gold Disc One
DYEAR=2007
DGENRE=Country
TTITLE0=Praise the Lord and Pass the Soup
TTITLE1=Family Reunion
TTITLE2=Y'All Come Back Saloon
TTITLE3=You're The One
TTITLE4=I'll Be True To You
TTITLE5=Cryin' Again
TTITLE6=Come On In
TTITLE7=Sail Away
TTITLE8=Dream On
TTITLE9=Leaving Louisiana In The Broad Daylight
TTITLE10=Trying To Love Two Women
TTITLE11=Heart Of Mine
TTITLE12=Beautiful You
TTITLE13=Elvira
TTITLE14=(I'm Settin') Fancy Free
TTITLE15=Bobbie Sue
TTITLE16=So Fine
TTITLE17=I Wish You Could Have Turned My Head (And Left My Heart Alone)
EXTD=
EXTT0=
EXTT1=
EXTT2=
EXTT3=
EXTT4=
EXTT5=
EXTT6=
EXTT7=
EXTT8=
EXTT9=
EXTT10=
EXTT11=
EXTT12=
EXTT13=
EXTT14=
EXTT15=
EXTT16=
EXTT17=
PLAYORDER=
